# xmcd CD database file
#
# Track frame offsets:
#	182
#	14960
#	24940
#	35367
#	48410
#	62160
#	71975
#	83767
#	97232
#	103227
#	109407
#	128910
#	142152
#	156432
#
# Disc length: 2173 seconds
#
# Revision: 1
# Processed by: cddbd v1.5.1PL2 Copyright (c) Steve Scherf et al.
# Submitted via: Feurio! 1.66 - http://www.feurio.com
#
DISCID=d6087b0e
DTITLE=Leadbelly - The House Of The Rising Sun
DYEAR=1900
DGENRE=blues
TTITLE0=The House Of The Rising Sun
TTITLE1=On A Monday
TTITLE2=Blue Tail Fly
TTITLE3=Goodnight Irene
TTITLE4=Where Did You Sleep Last Night
TTITLE5=How Long
TTITLE6=The Boll Weevil Song
TTITLE7=Medley: Look, Looky Yonder - Black Betty
TTITLE8=Big Fat Woman
TTITLE9=Whoa Back Buck
TTITLE10=John Hardy
TTITLE11=Tell Me Baby
TTITLE12=Yellow Gal
TTITLE13=Noted Rider
EXTD=Leadbelly
EXTT0=
EXTT1=
EXTT2=
EXTT3=
EXTT4=
EXTT5=
EXTT6=
EXTT7=
EXTT8=
EXTT9=
EXTT10=
EXTT11=
EXTT12=
EXTT13=
PLAYORDER=
